<svg xmlns="http://www.w3.org/2000/svg" xml:space="preserve" width="1.70666in" height="1.70666in" version="1.1" style="shape-rendering:geometricPrecision; text-rendering:geometricPrecision; image-rendering:optimizeQuality; fill-rule:evenodd; clip-rule:evenodd" viewBox="0 0 1706.66 1706.66" xmlns:xlink="http://www.w3.org/1999/xlink" xmlns:xodm="http://www.corel.com/coreldraw/odm/2003">
<defs>
<style type="text/css">
   
    .fil3 {fill:#333333}
    .fil1 {fill:#CED07D}
    .fil0 {fill:#FE6F69}
    .fil2 {fill:#FFCB5B}
   
  </style>
</defs>
<g id="Layer_x0020_1">
<metadata id="CorelCorpID_0Corel-Layer"></metadata>
<path class="fil0" d="M653.83 1421.41l-478.51 -478.54 -123.78 123.78c-37.83,37.82 -37.83,99.37 0,137.19l341.33 341.33c37.71,37.72 99.5,37.7 137.2,0l123.76 -123.76z" id="id_112"></path>
<path class="fil1" d="M291.53 719.78l395.79 395.79 502.67 -502.67 -395.78 -395.79 -502.68 502.67zm285.76 42.71c-17.62,0 -26.8,-21.49 -14.14,-34.15l239.61 -239.62c18.61,-18.63 46.91,9.67 28.28,28.28l-239.61 239.63c-3.89,3.91 -9.02,5.86 -14.14,5.86zm87.34 87.33c-17.62,0 -26.8,-21.49 -14.14,-34.15l239.61 -239.62c18.63,-18.63 46.93,9.67 28.3,28.28l-239.63 239.62c-3.91,3.92 -9.03,5.86 -14.14,5.86zm-174.67 -174.67c-17.62,0 -26.8,-21.49 -14.14,-34.15l239.62 -239.62c18.63,-18.63 46.91,9.68 28.28,28.28l-239.62 239.62c-3.92,3.9 -9.03,5.86 -14.15,5.86zm262 262.02c-17.63,0 -26.8,-21.52 -14.14,-34.16l239.61 -239.61c18.63,-18.63 46.93,9.67 28.3,28.28l-239.63 239.63c-3.9,3.92 -9.01,5.87 -14.14,5.87z" id="id_113"></path>
<path class="fil2" d="M673.19 1158l-409.94 -409.93 -113.07 113.07 585.42 585.43 744.36 -744.37c22.57,-22.57 22.58,-59.46 0.02,-82.04l-503.39 -503.39c-22.54,-22.54 -59.49,-22.53 -82.02,0l-72.07 72.07 409.93 409.93c7.82,7.81 7.82,20.48 0,28.28l-530.96 530.96c-7.81,7.81 -20.48,7.81 -28.28,-0.01z" id="id_114"></path>
<path class="fil3" d="M752.26 1511.53c-5.31,0 -10.39,-2.11 -14.14,-5.86l-613.71 -613.72c-7.82,-7.82 -7.82,-20.49 0,-28.3l758.52 -758.5c38.2,-38.2 100.42,-38.2 138.61,0l503.37 503.39c38.19,38.2 38.2,100.43 -0.02,138.61l-758.5 758.52c-3.75,3.74 -8.83,5.86 -14.14,5.86zm-585.41 -633.72l585.42 585.43 744.36 -744.37c22.57,-22.57 22.58,-59.46 0.02,-82.04l-503.39 -503.39c-22.54,-22.54 -59.49,-22.53 -82.02,0l-744.39 744.37z" id="id_115"></path>
<path class="fil3" d="M704 1180.54c-5.13,0 -10.24,-1.96 -14.14,-5.87l-424.07 -424.07c-7.81,-7.81 -7.82,-20.46 0,-28.28l530.96 -530.96c7.5,-7.5 20.78,-7.5 28.28,0l424.07 424.07c7.82,7.81 7.82,20.48 0,28.28l-530.96 530.96c-3.91,3.9 -9.02,5.86 -14.14,5.86zm-395.8 -444.09l395.79 395.79 502.67 -502.67 -395.78 -395.79 -502.68 502.67z" id="id_116"></path>
<path class="fil3" d="M768.63 953.83c-17.63,0 -26.8,-21.52 -14.14,-34.16l239.61 -239.61c18.63,-18.63 46.93,9.67 28.3,28.28l-239.63 239.63c-3.9,3.92 -9.01,5.87 -14.14,5.87z" id="id_117"></path>
<path class="fil3" d="M681.3 866.49c-17.62,0 -26.8,-21.49 -14.14,-34.15l239.61 -239.62c18.63,-18.63 46.93,9.67 28.3,28.28l-239.63 239.62c-3.91,3.92 -9.03,5.86 -14.14,5.86z" id="id_118"></path>
<path class="fil3" d="M593.95 779.16c-17.62,0 -26.8,-21.49 -14.14,-34.15l239.61 -239.62c18.61,-18.63 46.91,9.67 28.28,28.28l-239.61 239.63c-3.89,3.91 -9.02,5.86 -14.14,5.86z" id="id_119"></path>
<path class="fil3" d="M506.62 691.81c-17.62,0 -26.8,-21.49 -14.14,-34.15l239.62 -239.62c18.63,-18.63 46.91,9.68 28.28,28.28l-239.62 239.62c-3.92,3.9 -9.03,5.86 -14.15,5.86z" id="id_120"></path>
<path class="fil3" d="M1686.8 1630.11l-1209.26 0c-26.33,0 -26.33,-40 0,-40l1209.26 0c26.33,0 26.33,40 0,40z" id="id_121" style="fill: rgb(179, 62, 58);"></path>
<path class="fil3" d="M478.17 1630.14c-36.7,0 -71.1,-14.21 -96.9,-40l-341.33 -341.33c-53.43,-53.44 -53.43,-140.35 0,-193.79l137.91 -137.91c7.82,-7.82 20.48,-7.82 28.28,0l506.83 506.82c7.82,7.82 7.82,20.49 0,28.3l-137.91 137.92c-25.8,25.77 -60.21,40 -96.9,40zm-286.18 -670.6l-123.78 123.78c-37.83,37.82 -37.83,99.37 0,137.19l341.33 341.33c37.73,37.73 99.47,37.74 137.2,0l123.76 -123.76 -478.51 -478.54z" id="id_122"></path>
</g>
</svg>