<svg xmlns="http://www.w3.org/2000/svg" xml:space="preserve" width="2.66666in" height="2.66666in" version="1.1" style="shape-rendering:geometricPrecision; text-rendering:geometricPrecision; image-rendering:optimizeQuality; fill-rule:evenodd; clip-rule:evenodd" viewBox="0 0 2666.66 2666.66" xmlns:xlink="http://www.w3.org/1999/xlink" xmlns:xodm="http://www.corel.com/coreldraw/odm/2003">
<defs>
<style type="text/css">
   
    .fil2 {fill:#4682BF}
    .fil3 {fill:#B7D7FE}
    .fil1 {fill:#CED7E8}
    .fil0 {fill:#E2F0CB}
   
  </style>
</defs>
<g id="Layer_x0020_1">
<metadata id="CorelCorpID_0Corel-Layer"></metadata>
<circle class="fil0" cx="1333.33" cy="1333.33" r="1333.33" id="id_101" style="fill: rgb(241, 245, 235);"></circle>
<g id="_2615356272448">
<path class="fil1" d="M958.3 2110.15c-36.7,0 -71.11,-14.21 -96.9,-40.01l-341.33 -341.33c-53.43,-53.44 -53.43,-140.35 0,-193.78l137.91 -137.92c7.82,-7.83 20.48,-7.83 28.28,0l506.84 506.82c7.82,7.83 7.82,20.49 0,28.3l-137.91 137.91c-25.8,25.78 -60.21,40 -96.89,40z" id="id_102" style="fill: rgb(178, 184, 171);"></path>
<path class="fil2" d="M1232.38 1991.54c-5.31,0 -10.39,-2.11 -14.14,-5.87l-613.71 -613.72c-7.82,-7.82 -7.82,-20.49 0,-28.3l758.52 -758.5c38.2,-38.19 100.42,-38.19 138.61,0l503.37 503.39c38.2,38.2 38.2,100.43 -0.01,138.61l-758.5 758.51c-3.75,3.74 -8.83,5.87 -14.14,5.87z" id="id_103"></path>
<path class="fil3" d="M731.74 1216.45l559.24 -559.24 438.23 438.23c7.82,7.81 7.82,20.48 0,28.28l-530.96 530.96c-3.91,3.9 -9.02,5.86 -14.14,5.86 -5.13,0 -10.24,-1.96 -14.14,-5.86l-438.23 -438.23z" id="id_104"></path>
<path class="fil2" d="M1248.74 1433.84c-17.63,0 -26.8,-21.52 -14.14,-34.16l239.61 -239.61c18.63,-18.63 46.93,9.67 28.3,28.28l-239.63 239.63c-3.9,3.92 -9.01,5.87 -14.14,5.87z" id="id_105"></path>
<path class="fil2" d="M1161.41 1346.5c-17.62,0 -26.8,-21.49 -14.14,-34.15l239.61 -239.62c18.63,-18.63 46.93,9.67 28.3,28.28l-239.63 239.62c-3.91,3.92 -9.03,5.86 -14.14,5.86z" id="id_106"></path>
<path class="fil2" d="M1074.07 1259.17c-17.62,0 -26.8,-21.49 -14.14,-34.15l239.61 -239.62c18.61,-18.63 46.91,9.67 28.28,28.28l-239.61 239.63c-3.89,3.91 -9.02,5.86 -14.14,5.86z" id="id_107"></path>
<path class="fil2" d="M986.74 1171.82c-17.62,0 -26.8,-21.49 -14.14,-34.15l239.62 -239.62c18.63,-18.63 46.91,9.68 28.28,28.28l-239.62 239.62c-3.92,3.9 -9.03,5.86 -14.15,5.86z" id="id_108"></path>
<path class="fil1" d="M2166.91 2110.12l-1209.26 0c-26.33,0 -26.33,-40 0,-40l1209.26 0c26.33,0 26.33,40 0,40z" id="id_109" style="fill: rgb(179, 184, 173);"></path>
</g>
</g>
</svg>