<svg width="48" height="48" viewBox="0 0 48 48" fill="none" xmlns="http://www.w3.org/2000/svg">
<path d="M24 44C11.458 44 2 35.4 2 24C2 12.6 11.458 4 24 4C24.379 4 24.748 4.011 25.126 4.032C26.061 4.07506 26.9505 4.44774 27.637 5.084C28.019 5.43993 28.3254 5.86914 28.538 6.34604C28.7505 6.82293 28.8649 7.33774 28.8742 7.85978C28.8835 8.38181 28.7877 8.90038 28.5923 9.38457C28.3969 9.86875 28.106 10.3086 27.737 10.678L25.137 13.278C24.5986 13.817 24.2321 14.5034 24.0837 15.2506C23.9354 15.9978 24.0118 16.7722 24.3035 17.476C24.5951 18.1798 25.0888 18.7813 25.7222 19.2045C26.3556 19.6278 27.1002 19.8538 27.862 19.854C27.954 19.854 28.046 19.854 28.138 19.844L39.521 19.033C39.63 19.025 39.749 19.021 39.867 19.021C40.0979 19.0211 40.3285 19.0378 40.557 19.071L41.821 19.251C42.9664 19.4088 44.0175 19.9713 44.784 20.8369C45.5506 21.7025 45.9819 22.8139 46 23.97C46.0085 27.0686 45.2661 30.1232 43.8363 32.8722C42.4065 35.6212 40.3319 37.9829 37.79 39.755C37.7579 39.7778 37.7245 39.7989 37.69 39.818L33.35 42.188C33.3175 42.2055 33.2842 42.2211 33.25 42.235C30.3107 43.419 27.1688 44.0185 24 44V44Z" fill="#EAEFF0" id="id_111"></path>
<path d="M41.821 19.25L40.557 19.07C40.3285 19.0368 40.0979 19.0201 39.867 19.02C39.749 19.02 39.63 19.02 39.521 19.032L38.821 19.082C35.9313 24.63 31.6822 29.3549 26.4707 32.8149C21.2593 36.2749 15.2557 38.3571 9.021 38.867C13.2611 42.2752 18.5607 44.0913 24 44C27.1681 44.0183 30.3093 43.4188 33.248 42.235C33.2822 42.2211 33.3155 42.2054 33.348 42.188L37.688 39.818C37.7225 39.7989 37.7559 39.7778 37.788 39.755C40.3302 37.9831 42.4053 35.6215 43.8354 32.8725C45.2656 30.1235 46.0083 27.0688 46 23.97C45.9821 22.8137 45.5509 21.7021 44.7843 20.8363C44.0178 19.9705 42.9666 19.4078 41.821 19.25V19.25Z" fill="#CDD3D3" id="id_112"></path>
<path d="M11 24C12.933 24 14.5 22.433 14.5 20.5C14.5 18.567 12.933 17 11 17C9.067 17 7.5 18.567 7.5 20.5C7.5 22.433 9.067 24 11 24Z" fill="#FD3730" id="id_113"></path>
<path d="M13.5 34C15.433 34 17 32.433 17 30.5C17 28.567 15.433 27 13.5 27C11.567 27 10 28.567 10 30.5C10 32.433 11.567 34 13.5 34Z" fill="#FAC100" id="id_114"></path>
<path d="M24 39C25.933 39 27.5 37.433 27.5 35.5C27.5 33.567 25.933 32 24 32C22.067 32 20.5 33.567 20.5 35.5C20.5 37.433 22.067 39 24 39Z" fill="#00CF66" id="id_115"></path>
<path d="M24 39C24.7089 39.0023 25.4018 38.7885 25.9861 38.3872C26.5705 37.9858 27.0187 37.4159 27.271 36.7533C27.5233 36.0908 27.5678 35.3671 27.3984 34.6787C27.229 33.9903 26.8539 33.3698 26.323 32.9C24.4958 34.1082 22.5645 35.151 20.552 36.016C20.6736 36.8441 21.0886 37.601 21.7215 38.1487C22.3544 38.6964 23.163 38.9986 24 39V39Z" fill="#00B157" id="id_116"></path>
<path d="M35 46C34.4448 46.0001 33.9112 45.7844 33.512 45.3986C33.1127 45.0128 32.8789 44.4869 32.86 43.932L32 19.1C31.9866 18.6977 32.0543 18.2968 32.199 17.9212C32.3438 17.5456 32.5626 17.203 32.8425 16.9137C33.1224 16.6245 33.4577 16.3945 33.8284 16.2375C34.199 16.0806 34.5975 15.9998 35 16V16C35.4025 15.9998 35.801 16.0806 36.1716 16.2375C36.5423 16.3945 36.8776 16.6245 37.1575 16.9137C37.4374 17.203 37.6563 17.5456 37.801 17.9212C37.9457 18.2968 38.0134 18.6977 38 19.1L37.144 43.93C37.1256 44.486 36.8915 45.0129 36.4913 45.3993C36.0911 45.7856 35.5563 46.0011 35 46Z" fill="#FFD188" id="id_117"></path>
<path d="M35 16C34.6585 16.0036 34.3202 16.0661 34 16.185C34.6 16.395 35.1175 16.7909 35.4771 17.3151C35.8368 17.8393 36.02 18.4646 36 19.1L35.143 43.93C35.1291 44.306 35.0161 44.6716 34.8154 44.9898C34.6146 45.308 34.3333 45.5675 34 45.742C34.3195 45.9155 34.6781 46.0043 35.0417 45.9997C35.4052 45.9951 35.7615 45.8973 36.0765 45.7157C36.3915 45.5342 36.6547 45.2748 36.8409 44.9625C37.0271 44.6503 37.1301 44.2954 37.14 43.932L38 19.1C38.0134 18.6977 37.9457 18.2968 37.801 17.9212C37.6562 17.5456 37.4374 17.203 37.1575 16.9137C36.8776 16.6245 36.5423 16.3945 36.1716 16.2375C35.801 16.0806 35.4025 15.9998 35 16V16Z" fill="#F9A06F" id="id_118"></path>
<path d="M34 2C34 5 31 7 31 11C31 12.0609 31.4214 13.0783 32.1716 13.8284C32.9217 14.5786 33.9391 15 35 15C36.0609 15 37.0783 14.5786 37.8284 13.8284C38.5786 13.0783 39 12.0609 39 11C39 6 34 2 34 2Z" fill="#E67244" id="id_119"></path>
<path d="M31.377 12.673C31.7576 13.5011 32.41 14.1741 33.2259 14.5803C34.0417 14.9865 34.972 15.1015 35.8622 14.9061C36.7524 14.7107 37.549 14.2168 38.1198 13.5063C38.6905 12.7958 39.0011 11.9114 39 11C38.9905 10.0338 38.8156 9.07626 38.483 8.16901C37.6591 9.35601 36.6059 10.366 35.3855 11.1396C34.165 11.9131 32.8021 12.4345 31.377 12.673Z" fill="#C6512B" id="id_120"></path>
</svg>